<svg id="Layer_1" data-name="Layer 1" xmlns="http://www.w3.org/2000/svg" viewBox="0 0 795.35 201.86"><defs><style>.cls-1{font-size:157.03px;font-family:HimsomniaRegular, Himsomnia;}.cls-1,.cls-3{fill:#42210b;}.cls-2{letter-spacing:-0.03em;}</style></defs><title>terrabarn</title><text class="cls-1" transform="translate(23.4 131.83)">T<tspan class="cls-2" x="37.69" y="0">e</tspan><tspan x="87.31" y="0">rraBarn</tspan></text><g id="Layer_2" data-name="Layer 2"><path id="_Path_" data-name="&lt;Path&gt;" class="cls-3" d="M683,478c-2.58,0-2.58,2.59-2.58,5.81S683,568.36,736,570.3c14.2,0,31-13.57,37.45-25.19,2.58-5.16,23.25-35.52,18.73-80.72-.6-4.78-4-11.23-11.13-5.49a10,10,0,0,0-2.93,3.87c-2.57,6-7.12,32.49-16.53,32a2,2,0,0,1-1-.31c-7.84-5.1-24.92-64.12-36.59-61.8a1.8,1.8,0,0,0-.58.23c-2.38,1.44-4.83,6.21-2.95,14.7.64,3.23,10.12,24.63,13.56,34.23.39,1.08,2.45,5.75,2.39,6.25s-.43.77-.91.43-2.25-4.9-2.77-6c-6.37-13.88-22.33-48.31-29.06-45.2-1.94.65-7.11,5.81-2.59,18.73.65,2.58,15.5,38.1,15.5,38.74V495a.7.7,0,0,1-1.16.52l-.13-.12c0-.65-18-43.06-26.41-42.63a.53.53,0,0,0-.12,0c-1.93.65-4.46,1.95-4.46,5.79a53.52,53.52,0,0,0,6.41,25.1c0,.06,7.79,14.94,7.79,15.58a34,34,0,0,1,1.57,4.16.5.5,0,0,1-.88.44,34,34,0,0,1-2-3.31C693.2,493.11,686.24,478,683,478Z" transform="translate(-114.33 -411.07)"/><path id="_Path_2" data-name="&lt;Path&gt;" class="cls-3" d="M907.09,478c2.58,0,2.58,2.59,2.58,5.81s-2.58,84.6-55.53,86.54c-14.21,0-31-13.57-37.45-25.19C814.1,540,793.44,509.59,798,464.39c.6-4.78,4-11.23,11.13-5.49a10.06,10.06,0,0,1,2.93,3.87c2.57,6,7.12,32.49,16.52,32a2,2,0,0,0,1-.31c7.83-5.1,24.92-64.12,36.58-61.8a1.72,1.72,0,0,1,.58.23c2.38,1.44,4.84,6.21,3,14.7-.65,3.23-10.13,24.63-13.56,34.23-.39,1.08-2.45,5.75-2.39,6.25s.42.77.91.43,2.25-4.9,2.77-6c6.36-13.88,22.33-48.31,29.06-45.2,1.93.65,7.1,5.81,2.58,18.73-.65,2.58-15.5,38.1-15.5,38.74V495a.7.7,0,0,0,1.16.52l.13-.12c0-.65,18-43.06,26.42-42.63l.12,0c1.93.65,4.46,1.95,4.46,5.79a53.52,53.52,0,0,1-6.41,25.1c0,.06-7.8,14.94-7.8,15.58a34,34,0,0,0-1.56,4.16.5.5,0,0,0,.88.44,36.1,36.1,0,0,0,2-3.31C896.91,493.11,903.86,478,907.09,478Z" transform="translate(-114.33 -411.07)"/></g></svg>