<svg id="Layer_1" data-name="Layer 1" xmlns="http://www.w3.org/2000/svg" viewBox="0 0 795.35 137.69"><defs><style>.cls-1{fill:#42210b;}</style></defs><title>terrabarn</title><path class="cls-1" d="M160.71,507.91c-.16,11.64-.72,20.91.23,30.18.34,3.27-1,4.53-4.33,4.81-7,.56-10.42-1.88-11.22-8.74a85.1,85.1,0,0,1-.27-14.37c1-17.57,2.16-35.12,4.45-52.58.17-1.27.43-2.53.5-3.8a2.88,2.88,0,0,0-2.61-3.37c-5.38-.74-10.77-1.45-16.18-2-3.82-.39-7.66-.48-11.49-.82-2.23-.2-4.63-.41-5.27-3.19-.83-3.59,1.06-7.73,4.23-8.74a20.2,20.2,0,0,1,6.61-.85c7.67.23,15.34.52,23,1.07,12.12.86,24.22,2.1,36.35,2.87,6,.38,12.14.56,18.13-1,2.2-.57,3.64.93,3.52,3.17-.36,6.7-3.64,10.74-10.13,12.1-6.33,1.32-12.75,1-19.14.68-2.87-.13-5.73-.58-8.6-.79s-3.83.51-4.26,3.75c-.59,4.44-1.21,8.88-1.56,13.34C161.88,489.83,161.25,500.05,160.71,507.91Z" transform="translate(-114.32 -432.61)"/><path class="cls-1" d="M173.21,515.64c-.07-11.11,2.55-19.26,7.12-26.77a25.27,25.27,0,0,1,16.52-12.18c10.65-2.37,18.32,3.59,19.06,14.42.7,10.25-8.17,25.54-20.4,26.54a15,15,0,0,0-2.84.4,1.93,1.93,0,0,0-1.64,2c.42,5.66,2.29,10.59,7.17,14a6.39,6.39,0,0,0,7.22.25,36.3,36.3,0,0,0,10.27-8.52,82.83,82.83,0,0,0,10.25-16.16c1.44-2.85,3-5.66,4.63-8.39,1.34-2.18,3.5-2.56,5.89-2.11a2.5,2.5,0,0,1,2.22,2.62,3.71,3.71,0,0,1-.58,1.81c-4.33,7.82-8.61,15.69-13.1,23.42a32.19,32.19,0,0,1-4.85,5.92c-8.76,9.07-19.3,10.53-30.91,7-9.26-2.83-14.13-9.44-15.59-18.76A44.5,44.5,0,0,1,173.21,515.64Zm17.33-7.92c-.09,2.91-.15,4.92,2,5.83,2,.82,3.73-.09,5.3-1.3a23.3,23.3,0,0,0,8.24-11.52c1.51-4.69,1.62-9.42-.63-14-1.71-3.49-4.19-4-6.6-1.06C193.34,492.32,191.3,500.29,190.54,507.72Z" transform="translate(-114.32 -432.61)"/><path class="cls-1" d="M261.52,505.16c-.72,8.46-.92,16.12.31,23.76a18.86,18.86,0,0,0,2.37,7.23c2.08,3.29,5.16,3.78,8.05,1.32,3.6-3.05,5.24-7.21,6.48-11.53,1.14-4,1.86-8.11,2.95-12.11.78-2.88,2.74-4,5.89-3.51,1.77.24,3.25,1.31,3,3.07-1.11,7.58-2.37,15.16-5.41,22.26a13.21,13.21,0,0,1-6.53,6.8c-7.7,3.66-15.43,3.66-23-.42a12.72,12.72,0,0,1-6.73-9.95,84.53,84.53,0,0,1-.61-11.47A213.39,213.39,0,0,1,250.7,492c.66-4.72,0-5.37-4.9-6.13a18.23,18.23,0,0,0-2.86-.28,3,3,0,0,0-3.27,2.76c-.27,1.57-.42,3.17-.7,4.74a103.26,103.26,0,0,1-7.89,25.59c-1.08,2.31-2.29,4.68-5.1,5.36-1.23.3-2.69.45-3.49-.76a3.19,3.19,0,0,1-.29-2.59c3.32-8,6.53-16,8-24.55q.65-3.78,1.31-7.55c.64-3.69.26-6.84-3.27-9.23a13.06,13.06,0,0,1-5-6.85,5,5,0,0,1,3-6.21c4-1.46,7.38-.61,9.73,3.38,3.73,6.35,9.31,9.45,16.29,10.53,9.49,1.47,10.93,2.36,9.95,13.34C261.83,497.64,261.71,501.8,261.52,505.16Z" transform="translate(-114.32 -432.61)"/><path class="cls-1" d="M318.83,505.16c-.71,8.46-.92,16.12.32,23.76a18.52,18.52,0,0,0,2.37,7.23c2.08,3.29,5.15,3.78,8.05,1.32,3.59-3.05,5.24-7.21,6.47-11.53,1.15-4,1.86-8.11,2.95-12.11.78-2.88,2.74-4,5.89-3.51,1.77.24,3.26,1.31,3,3.07-1.12,7.58-2.37,15.16-5.42,22.26a13.23,13.23,0,0,1-6.52,6.8c-7.71,3.66-15.44,3.66-23-.42a12.7,12.7,0,0,1-6.73-9.95,84.53,84.53,0,0,1-.61-11.47A213.38,213.38,0,0,1,308,492c.67-4.72,0-5.37-4.89-6.13a18.47,18.47,0,0,0-2.86-.28A3,3,0,0,0,297,488.3c-.27,1.57-.41,3.17-.69,4.74a103.28,103.28,0,0,1-7.9,25.59c-1.08,2.31-2.29,4.68-5.09,5.36-1.23.3-2.69.45-3.5-.76a3.23,3.23,0,0,1-.29-2.59c3.33-8,6.53-16,8-24.55q.66-3.78,1.31-7.55c.64-3.69.27-6.84-3.26-9.23a13,13,0,0,1-5-6.85,5,5,0,0,1,3-6.21c4-1.46,7.39-.61,9.73,3.38,3.74,6.35,9.32,9.45,16.29,10.53,9.5,1.47,10.93,2.36,9.95,13.34C319.14,497.64,319,501.8,318.83,505.16Z" transform="translate(-114.32 -432.61)"/><path class="cls-1" d="M373.42,533.12a24.36,24.36,0,0,0-2.34,2.77c-3.65,6.52-9.55,8.05-16.37,7.31-7.18-.77-12.62-4.16-15.73-10.9a25,25,0,0,1-2.62-11.1c.29-11,2.36-21.57,8.26-31.1a28.17,28.17,0,0,1,7.66-8.46,21.55,21.55,0,0,1,17.33-3.51c2.8.57,5.54,1.31,8.42,1.61,4.28.45,5.59,2,5.7,6.18.14,4.79-.09,9.58-.09,14.38,0,6.38-.05,12.78.19,19.16a22.86,22.86,0,0,0,4.59,13.38c3.29,4.28,5.95,4.25,9.07,0A35.18,35.18,0,0,0,403,520.7c1.06-4,1.8-8.1,2.74-12.15a34.55,34.55,0,0,1,1.56-5.5c.69-1.68,2.36-2.05,4-1.87s3.28,1.38,3,3.07c-1.57,11.06-3.37,22.11-8.56,32.19-2,3.95-5.74,5.92-10.09,6.49-7,.92-13.35-.49-18.43-5.79C376.16,536,375.08,534.85,373.42,533.12Zm-1.53-43.35c0-.55.05-1.19,0-1.83-.21-2.53-1.78-4-4-4.91-2-.85-3.75-.1-5.33,1.1a19.93,19.93,0,0,0-6.1,8.47,65.54,65.54,0,0,0-5,29.07,24.58,24.58,0,0,0,3.7,11.79c1.51,2.44,3.72,2.68,5.38.56a33,33,0,0,0,4.39-8.48C369.48,514.06,370.54,501.94,371.89,489.77Z" transform="translate(-114.32 -432.61)"/><path class="cls-1" d="M459.86,494.18c2.21,1.54,4.6,3,6.78,4.78,12.15,9.75,12.56,25.15,1.07,35.75-6.74,6.22-14.69,9-23.76,7.92a37.35,37.35,0,0,0-10.4,0c-5.21.81-7.57-1.45-8.17-6.87-.32-2.85-.44-5.74-.52-8.62a590.8,590.8,0,0,1,2.44-69c.08-1,.11-1.93.27-2.87.52-3,2.14-4.34,5.27-4.36s5.26,1.21,5.7,4a73.85,73.85,0,0,1,1,10.49c.09,7.67-.11,15.34-.11,23a3.13,3.13,0,0,0,1,2.39,3.1,3.1,0,0,0,2.62-.25c10.89-6.78,17.36-21.66,14.84-34.09a20.71,20.71,0,0,0-5.64-10.93c-4.69-4.62-10.07-6.36-16.64-4.38-11.65,3.52-20.76,14.79-22,27.64a37.82,37.82,0,0,0,1.61,15.16,3,3,0,0,1-.94,2.48,2.81,2.81,0,0,1-3.54.11,9.47,9.47,0,0,1-2.6-2.68,24.86,24.86,0,0,1-3-14.81c1.46-18.17,19.35-38.85,46.4-32.44,17.05,4,25.48,20,21,37.26a35.69,35.69,0,0,1-7.88,14.13C463,489.81,460.38,491,459.86,494.18Zm-21.21,23.64h.23c0,5.4-.12,10.8.05,16.19.07,2.6,1.93,3.8,4.54,3.62a9.63,9.63,0,0,0,5.32-1.83c6.36-4.84,10.29-11.19,11.07-19.19a19,19,0,0,0-3.8-13.45c-3.53-4.72-7.09-5.43-14.45-3-4.34,1.46-2.66,5.21-2.9,8.1C438.45,511.46,438.65,514.65,438.65,517.82Z" transform="translate(-114.32 -432.61)"/><path class="cls-1" d="M517.73,533.12a22.39,22.39,0,0,0-2.34,2.77c-3.65,6.52-9.55,8.05-16.38,7.31-7.17-.77-12.62-4.16-15.72-10.9a25,25,0,0,1-2.62-11.1c.29-11,2.36-21.57,8.26-31.1a28,28,0,0,1,7.66-8.46,21.55,21.55,0,0,1,17.33-3.51c2.8.57,5.53,1.31,8.42,1.61,4.28.45,5.58,2,5.7,6.18.13,4.79-.1,9.58-.09,14.38,0,6.38-.05,12.78.19,19.16a22.79,22.79,0,0,0,4.59,13.38c3.29,4.28,5.95,4.25,9.07,0a35.36,35.36,0,0,0,5.49-12.14c1.05-4,1.8-8.1,2.74-12.15a35.6,35.6,0,0,1,1.55-5.5c.7-1.68,2.36-2.05,4-1.87s3.28,1.38,3,3.07c-1.58,11.06-3.37,22.11-8.57,32.19-2,3.95-5.73,5.92-10.08,6.49-7,.92-13.35-.49-18.44-5.79Zm-1.53-43.35c0-.55,0-1.19,0-1.83-.2-2.53-1.77-4-4-4.91-2-.85-3.75-.1-5.33,1.1a19.85,19.85,0,0,0-6.1,8.47,65.54,65.54,0,0,0-5,29.07,24.68,24.68,0,0,0,3.69,11.79c1.52,2.44,3.72,2.68,5.38.56a33,33,0,0,0,4.4-8.48C513.79,514.06,514.85,501.94,516.2,489.77Z" transform="translate(-114.32 -432.61)"/><path class="cls-1" d="M585.15,505.16c-.72,8.46-.92,16.12.32,23.76a18.67,18.67,0,0,0,2.36,7.23c2.09,3.29,5.16,3.78,8,1.32,3.6-3.05,5.24-7.21,6.48-11.53,1.14-4,1.86-8.11,2.95-12.11.78-2.88,2.74-4,5.89-3.51,1.77.24,3.25,1.31,3,3.07-1.11,7.58-2.36,15.16-5.41,22.26a13.21,13.21,0,0,1-6.53,6.8c-7.7,3.66-15.43,3.66-23-.42a12.72,12.72,0,0,1-6.73-9.95,84.53,84.53,0,0,1-.61-11.47A213.39,213.39,0,0,1,574.33,492c.66-4.72,0-5.37-4.9-6.13a18.22,18.22,0,0,0-2.85-.28,3,3,0,0,0-3.28,2.76c-.27,1.57-.42,3.17-.7,4.74a103.26,103.26,0,0,1-7.89,25.59c-1.08,2.31-2.29,4.68-5.1,5.36-1.23.3-2.69.45-3.49-.76a3.19,3.19,0,0,1-.29-2.59c3.33-8,6.53-16,8-24.55q.64-3.78,1.31-7.55c.64-3.69.26-6.84-3.26-9.23a13,13,0,0,1-5-6.85,5,5,0,0,1,3-6.21c4-1.46,7.39-.61,9.73,3.38,3.73,6.35,9.31,9.45,16.29,10.53,9.49,1.47,10.93,2.36,10,13.34C585.46,497.64,585.34,501.8,585.15,505.16Z" transform="translate(-114.32 -432.61)"/><path class="cls-1" d="M616.78,497.34c4.06-4.1,6.61-8.5,10.21-12.19A13.77,13.77,0,0,1,639.21,481c4.42.54,6.94,2.7,8.08,7,.93,3.47.59,7,.26,10.5-.79,8.28-1.6,16.56-2.38,24.85-.43,4.49-.45,9,1.16,13.27a2.07,2.07,0,0,0,3.16.82c2.69-2.07,3.8-5.1,4.88-8.09,1.75-4.81,3.25-9.71,5-14.51.92-2.51,2.56-3.28,5.33-2.8,1.31.23,2.65,1,2.32,2.47-1.68,7.81-3.5,15.66-7.48,22.66-3.35,5.89-10.78,8.46-17.58,6.79-7-1.72-10.54-5.93-11.12-13.75a109.26,109.26,0,0,1,.82-23,60.27,60.27,0,0,0,.94-6.64c.06-3.43,1.92-6.82.29-10.28-4.83.93-5.71,5.44-7.52,8.81-4.59,8.57-6.33,18.06-7.83,27.57-.65,4.1-1.35,8.22-1.66,12.36s-3,5-6.89,3.9a6.62,6.62,0,0,1-4.43-4.69,24.55,24.55,0,0,1-1.07-5.64,203.2,203.2,0,0,1,2.25-47.83c.78-4.63,2.8-6,7.21-5.71,3.08.2,4.57,1.7,4.5,5C617.36,488.47,617,492.91,616.78,497.34Z" transform="translate(-114.32 -432.61)"/><g id="Layer_2" data-name="Layer 2"><path id="_Path_" data-name="&lt;Path&gt;" class="cls-1" d="M683,478c-2.58,0-2.58,2.59-2.58,5.81S683,568.36,736,570.3c14.2,0,31-13.57,37.45-25.19,2.58-5.16,23.25-35.52,18.73-80.72-.6-4.78-4-11.23-11.13-5.49a10,10,0,0,0-2.93,3.87c-2.57,6-7.12,32.49-16.53,32a2,2,0,0,1-1-.31c-7.84-5.1-24.92-64.12-36.59-61.8a1.8,1.8,0,0,0-.58.23c-2.38,1.44-4.83,6.21-2.95,14.7.64,3.23,10.12,24.63,13.56,34.23.39,1.08,2.45,5.75,2.39,6.25s-.43.77-.91.43-2.25-4.9-2.77-6c-6.37-13.88-22.33-48.31-29.06-45.2-1.94.65-7.11,5.81-2.59,18.73.65,2.58,15.5,38.1,15.5,38.74V495a.7.7,0,0,1-1.16.52l-.13-.12c0-.65-18-43.06-26.41-42.63a.53.53,0,0,0-.12,0c-1.93.65-4.46,1.95-4.46,5.79a53.52,53.52,0,0,0,6.41,25.1c0,.06,7.79,14.94,7.79,15.58a34,34,0,0,1,1.57,4.16.5.5,0,0,1-.88.44,34,34,0,0,1-2-3.31C693.2,493.11,686.24,478,683,478Z" transform="translate(-114.32 -432.61)"/><path id="_Path_2" data-name="&lt;Path&gt;" class="cls-1" d="M907.09,478c2.58,0,2.58,2.59,2.58,5.81s-2.58,84.6-55.53,86.54c-14.21,0-31-13.57-37.45-25.19C814.1,540,793.44,509.59,798,464.39c.6-4.78,4-11.23,11.13-5.49a10.06,10.06,0,0,1,2.93,3.87c2.57,6,7.12,32.49,16.52,32a2,2,0,0,0,1-.31c7.83-5.1,24.92-64.12,36.58-61.8a1.72,1.72,0,0,1,.58.23c2.38,1.44,4.84,6.21,3,14.7-.65,3.23-10.13,24.63-13.56,34.23-.39,1.08-2.45,5.75-2.39,6.25s.42.77.91.43,2.25-4.9,2.77-6c6.36-13.88,22.33-48.31,29.06-45.2,1.93.65,7.1,5.81,2.58,18.73-.65,2.58-15.5,38.1-15.5,38.74V495a.7.7,0,0,0,1.16.52l.13-.12c0-.65,18-43.06,26.42-42.63l.12,0c1.93.65,4.46,1.95,4.46,5.79a53.52,53.52,0,0,1-6.41,25.1c0,.06-7.8,14.94-7.8,15.58a34,34,0,0,0-1.56,4.16.5.5,0,0,0,.88.44,36.1,36.1,0,0,0,2-3.31C896.91,493.11,903.86,478,907.09,478Z" transform="translate(-114.32 -432.61)"/></g></svg>