<svg xmlns="http://www.w3.org/2000/svg" viewBox="0 0 388.26 602.35"><defs><style>.cls-1{fill:#fff;}</style></defs><title>woman_white</title><g id="objects"><path class="cls-1" d="M559.65,528.5c-1.91,1.7-3.87,3.3-5.86,4.85C522.26,494.47,483.07,432,483.32,408.52c.29-27.91,17.93-56.42,25.57-80.22,4-12.42,10.21-25.31,15.25-34.81.3,1.38.63,2.76,1,4.12a63.15,63.15,0,0,0,2.41,6.9,54.54,54.54,0,0,0,3.14,6.31,47,47,0,0,0,7.57,9.8A42,42,0,0,0,545,326c.85.59,1.58,1,2.05,1.25l.74.43.65-1-.64-.51c-.42-.35-1.06-.79-1.8-1.47a40,40,0,0,1-5.62-6,43,43,0,0,1-5.64-9.91,50.22,50.22,0,0,1-2-6.07c-.47-1.8-.83-3.65-1.12-5.5.43.45.88.89,1.32,1.33a21.46,21.46,0,0,0,2.43,2.07,26.48,26.48,0,0,0,2.49,1.77,48,48,0,0,0,9.54,4.85c.71.3,1.43.5,2.1.73s1.3.44,1.9.6c1.23.3,2.27.59,3.15.77l2.77.5.27-1.19-2.57-.91c-.8-.31-1.76-.76-2.85-1.23-.55-.24-1.11-.56-1.71-.86s-1.23-.6-1.85-1a44.34,44.34,0,0,1-8-5.85,24.33,24.33,0,0,1-1.91-1.89,16.9,16.9,0,0,1-1.73-2.05,19.79,19.79,0,0,1-1.49-2.24l-.68-1.15c-.2-.4-.37-.8-.56-1.2a18.37,18.37,0,0,1-1.46-4.82,17.49,17.49,0,0,1-.15-2.38c0-.39,0-.78,0-1.16s.09-.77.13-1.15.14-.88.23-1.31c9.76,7.51,21.78,2.09,27.88-2.09l.28.25a30.14,30.14,0,0,1,3.31,3.7,20.79,20.79,0,0,1,2.34,4.1,19.36,19.36,0,0,1,1.43,8.43,30.22,30.22,0,0,1-1,6.33l-.71,2.38,1.12.49,1.16-2.29a32.61,32.61,0,0,0,2.28-6.52,23,23,0,0,0,.08-10.16,25.76,25.76,0,0,0-2-5.56,33.31,33.31,0,0,0-2.46-4.15c20.94.8,27.21-16.32,24.93-34.82-2.35-19.1-15-34.67-20.86-33.2-21.83-11.93-29.34-13.84-34.58-12.35.36-1.3.7-2.61,1-3.94.19-.87.39-1.73.58-2.58l.42-2.6a42.89,42.89,0,0,0,.58-5.09,74.53,74.53,0,0,0-.11-9c-.15-2.6-.27-4.75-.33-6.26s-.07-2.37-.07-2.37l-.61,0s0,.87-.16,2.39-.16,3.69-.26,6.28a74.35,74.35,0,0,1-.72,8.73,40.65,40.65,0,0,1-1,4.77l-.63,2.44c-.27.8-.53,1.61-.8,2.41-.58,1.77-1.24,3.52-1.92,5.23-.23-2.88-.47-5.83-.78-8.78a108.58,108.58,0,0,0-2.37-14.41c-.14-.56-.27-1.13-.41-1.68s-.33-1.11-.48-1.65-.33-1.08-.49-1.61a8,8,0,0,0-.25-.79l-.32-.77c-.86-2-1.75-3.76-2.55-5.42a60.27,60.27,0,0,1-3.48-8.1c-.17-.51-.26-1-.38-1.36l-.18-1c-.06-.55-.08-.84-.08-.84h-.61s0,.31,0,.91c0,.3.08.66.13,1.08s.15.91.29,1.44a62.38,62.38,0,0,0,3,8.46c.69,1.71,1.47,3.55,2.16,5.5l.24.71c.08.24.12.51.18.76l.36,1.57c.12.53.26,1.06.36,1.61s.19,1.1.29,1.66a106.38,106.38,0,0,1,1.36,14.17c.09,2.47.14,4.94.18,7.39-5.56-20.72-25.14-59.93-72.75-81.82C404.57,87.92,333.75,98.5,281.44,133.18c-39.38,27.62-42.32,50.54-42.32,50.54.15,1.34,0,5.29,0,5.29-.18.35-.36.7-.53,1.06-10.73,22.08-8.55,62.48-4.4,86.49l-.16,0a15.69,15.69,0,0,1-4.72.38,8.45,8.45,0,0,1-6.14-3.15c-.24-.29-.39-.55-.52-.72l-.18-.26-1,.41s0,.12.1.33.15.55.31.95a10.77,10.77,0,0,0,1.92,3.16,12,12,0,0,0,4.45,3.1,20.43,20.43,0,0,0,6,1.44l1,.07c2.19,13.41-1.43,23.17-11.67,35.13-10.58,12.34-26.16,24.68-12.05,35.26s26.74,15.28,20.57,23.8c-4.41,6.47-4.7,12.05,13.22,18.52-5.29,7.34-7.34,20.86,7.06,23.21-1.47,13.81,5.29,40,31.44,33.21s49.37-12.93,57,.29c6.58,11.39,46.05,53.72,29.5,102-5.51-1.33-8.63-2.26-8.63-2.26C322.08,632,290.14,699.66,290.14,699.66s144.33,16.6,183.93-60,120.06-52.36,120.06-52.36S591.58,570.65,559.65,528.5Z" transform="translate(-205.87 -98.83)"/></g></svg>